<svg aria-hidden="true" style="position: absolute; width: 0; height: 0; overflow: hidden;" version="1.1" xmlns="http://www.w3.org/2000/svg" xmlns:xlink="http://www.w3.org/1999/xlink">
<defs>
<symbol id="icon-facebook" viewBox="0 0 32 32">
<path d="M19 6h5v-6h-5c-3.86 0-7 3.14-7 7v3h-4v6h4v16h6v-16h5l1-6h-6v-3c0-0.542 0.458-1 1-1z"></path>
</symbol>
<symbol id="icon-instagram" viewBox="0 0 32 32">
<path d="M16 2.881c4.275 0 4.781 0.019 6.462 0.094 1.563 0.069 2.406 0.331 2.969 0.55 0.744 0.288 1.281 0.638 1.837 1.194 0.563 0.563 0.906 1.094 1.2 1.838 0.219 0.563 0.481 1.412 0.55 2.969 0.075 1.688 0.094 2.194 0.094 6.463s-0.019 4.781-0.094 6.463c-0.069 1.563-0.331 2.406-0.55 2.969-0.288 0.744-0.637 1.281-1.194 1.837-0.563 0.563-1.094 0.906-1.837 1.2-0.563 0.219-1.413 0.481-2.969 0.55-1.688 0.075-2.194 0.094-6.463 0.094s-4.781-0.019-6.463-0.094c-1.563-0.069-2.406-0.331-2.969-0.55-0.744-0.288-1.281-0.637-1.838-1.194-0.563-0.563-0.906-1.094-1.2-1.837-0.219-0.563-0.481-1.413-0.55-2.969-0.075-1.688-0.094-2.194-0.094-6.463s0.019-4.781 0.094-6.463c0.069-1.563 0.331-2.406 0.55-2.969 0.288-0.744 0.638-1.281 1.194-1.838 0.563-0.563 1.094-0.906 1.838-1.2 0.563-0.219 1.412-0.481 2.969-0.55 1.681-0.075 2.188-0.094 6.463-0.094zM16 0c-4.344 0-4.887 0.019-6.594 0.094-1.7 0.075-2.869 0.35-3.881 0.744-1.056 0.412-1.95 0.956-2.837 1.85-0.894 0.888-1.438 1.781-1.85 2.831-0.394 1.019-0.669 2.181-0.744 3.881-0.075 1.713-0.094 2.256-0.094 6.6s0.019 4.887 0.094 6.594c0.075 1.7 0.35 2.869 0.744 3.881 0.413 1.056 0.956 1.95 1.85 2.837 0.887 0.887 1.781 1.438 2.831 1.844 1.019 0.394 2.181 0.669 3.881 0.744 1.706 0.075 2.25 0.094 6.594 0.094s4.888-0.019 6.594-0.094c1.7-0.075 2.869-0.35 3.881-0.744 1.050-0.406 1.944-0.956 2.831-1.844s1.438-1.781 1.844-2.831c0.394-1.019 0.669-2.181 0.744-3.881 0.075-1.706 0.094-2.25 0.094-6.594s-0.019-4.887-0.094-6.594c-0.075-1.7-0.35-2.869-0.744-3.881-0.394-1.063-0.938-1.956-1.831-2.844-0.887-0.887-1.781-1.438-2.831-1.844-1.019-0.394-2.181-0.669-3.881-0.744-1.712-0.081-2.256-0.1-6.6-0.1v0z"></path>
<path d="M16 7.781c-4.537 0-8.219 3.681-8.219 8.219s3.681 8.219 8.219 8.219 8.219-3.681 8.219-8.219c0-4.537-3.681-8.219-8.219-8.219zM16 21.331c-2.944 0-5.331-2.387-5.331-5.331s2.387-5.331 5.331-5.331c2.944 0 5.331 2.387 5.331 5.331s-2.387 5.331-5.331 5.331z"></path>
<path d="M26.462 7.456c0 1.060-0.859 1.919-1.919 1.919s-1.919-0.859-1.919-1.919c0-1.060 0.859-1.919 1.919-1.919s1.919 0.859 1.919 1.919z"></path>
</symbol>
<symbol id="icon-twitter" viewBox="0 0 32 32">
<path d="M32 7.075c-1.175 0.525-2.444 0.875-3.769 1.031 1.356-0.813 2.394-2.1 2.887-3.631-1.269 0.75-2.675 1.3-4.169 1.594-1.2-1.275-2.906-2.069-4.794-2.069-3.625 0-6.563 2.938-6.563 6.563 0 0.512 0.056 1.012 0.169 1.494-5.456-0.275-10.294-2.888-13.531-6.862-0.563 0.969-0.887 2.1-0.887 3.3 0 2.275 1.156 4.287 2.919 5.463-1.075-0.031-2.087-0.331-2.975-0.819 0 0.025 0 0.056 0 0.081 0 3.181 2.263 5.838 5.269 6.437-0.55 0.15-1.131 0.231-1.731 0.231-0.425 0-0.831-0.044-1.237-0.119 0.838 2.606 3.263 4.506 6.131 4.563-2.25 1.762-5.075 2.813-8.156 2.813-0.531 0-1.050-0.031-1.569-0.094 2.913 1.869 6.362 2.95 10.069 2.95 12.075 0 18.681-10.006 18.681-18.681 0-0.287-0.006-0.569-0.019-0.85 1.281-0.919 2.394-2.075 3.275-3.394z"></path>
</symbol>
<symbol id="icon-youtube" viewBox="0 0 32 32">
<path d="M31.681 9.6c0 0-0.313-2.206-1.275-3.175-1.219-1.275-2.581-1.281-3.206-1.356-4.475-0.325-11.194-0.325-11.194-0.325h-0.012c0 0-6.719 0-11.194 0.325-0.625 0.075-1.987 0.081-3.206 1.356-0.963 0.969-1.269 3.175-1.269 3.175s-0.319 2.588-0.319 5.181v2.425c0 2.587 0.319 5.181 0.319 5.181s0.313 2.206 1.269 3.175c1.219 1.275 2.819 1.231 3.531 1.369 2.563 0.244 10.881 0.319 10.881 0.319s6.725-0.012 11.2-0.331c0.625-0.075 1.988-0.081 3.206-1.356 0.962-0.969 1.275-3.175 1.275-3.175s0.319-2.587 0.319-5.181v-2.425c-0.006-2.588-0.325-5.181-0.325-5.181zM12.694 20.15v-8.994l8.644 4.513-8.644 4.481z"></path>
</symbol>
<symbol id="icon-search" viewBox="0 0 32 32">
<path d="M31.008 27.231l-7.58-6.447c-0.784-0.705-1.622-1.029-2.299-0.998 1.789-2.096 2.87-4.815 2.87-7.787 0-6.627-5.373-12-12-12s-12 5.373-12 12 5.373 12 12 12c2.972 0 5.691-1.081 7.787-2.87-0.031 0.677 0.293 1.515 0.998 2.299l6.447 7.58c1.104 1.226 2.907 1.33 4.007 0.23s0.997-2.903-0.23-4.007zM12 20c-4.418 0-8-3.582-8-8s3.582-8 8-8 8 3.582 8 8-3.582 8-8 8z"></path>
</symbol>
<symbol id="logo-elitefont" viewBox="0 0 349.95 90.88">
<path d="M90.15,89.83v2.51H40.57l-.19,0,1.06-5,1.7-8.15,3.47-16.6,1.72-8.2,1-4.93a28,28,0,0,1,16-5h.84l-2.08,9.91H88.77c-.12.69-.25,1.39-.38,2.08-.51,2.8-1,5.59-1.54,8.39H61.92l-3,14.33H79.44A10.7,10.7,0,0,1,90.15,89.83Z" transform="translate(-18.23 -23.75)"/><path d="M101.73,25.11a12.93,12.93,0,0,1-13,13H63.09a40,40,0,0,0-9.75,2.39c-.78.3-1.55.62-2.31,1a40.52,40.52,0,0,0-1.12,73.2,45.88,45.88,0,0,1,14.2-89.51Z" transform="translate(-18.23 -23.75)"/><path d="M114,92.1a15.53,15.53,0,0,1-5-.74,13.08,13.08,0,0,1-5.92-3.7,12.84,12.84,0,0,1-3-6.1,18.68,18.68,0,0,1-.47-4.16,20.27,20.27,0,0,1,.28-3.24l6.94-48.66a12,12,0,0,1,11.52,9.35c-3.92,27.57-5.58,39.16-5.6,39.31s0,0,0,.12a3,3,0,0,0,0,.36q0,.31,0,.63A5.14,5.14,0,0,0,114,78.78c1.11,1.3,3,1.94,5.64,1.94A12.64,12.64,0,0,1,120,87a12.4,12.4,0,0,1-2,4.73A20.63,20.63,0,0,1,114,92.1Z" transform="translate(-18.23 -23.75)"/><path d="M136.43,91A11.86,11.86,0,0,1,129,93a11.73,11.73,0,0,1-5.71-2q2.83-20.3,5.66-40.61a16.42,16.42,0,0,1,14.14-7.21Zm2.77-67.24A6.6,6.6,0,0,1,144.57,26,6.54,6.54,0,0,1,146,30.13a9.34,9.34,0,0,1-.1,1.29A9.08,9.08,0,0,1,143,36.93a8.48,8.48,0,0,1-6,2.26,6.69,6.69,0,0,1-2.86-.6,6.09,6.09,0,0,1-2.18-1.66,6.41,6.41,0,0,1-1.25-2.45,7.07,7.07,0,0,1-.18-3.06,9.19,9.19,0,0,1,3-5.45,9.11,9.11,0,0,1,2.64-1.62A8,8,0,0,1,139.2,23.75Z" transform="translate(-18.23 -23.75)"/><path d="M160.66,91.82a14.36,14.36,0,0,1-5.87-1.11,10.33,10.33,0,0,1-4.21-3.33,13.18,13.18,0,0,1-2.31-5.45A20.27,20.27,0,0,1,148,78.5a25.54,25.54,0,0,1,.37-4.25l6-42.73A8.39,8.39,0,0,1,161,29a8.11,8.11,0,0,1,5,2.52q-.33,5.77-.65,11.56h5.25A10.09,10.09,0,0,1,173,47a10.8,10.8,0,0,1-.5,7.64h-8.69l-2.69,19.52c-.06.61-.09,1.17-.09,1.66a5.26,5.26,0,0,0,1.85,4.35,6.86,6.86,0,0,0,4.26,1.2,16.67,16.67,0,0,0,3-.28,7.73,7.73,0,0,1-1.39,9.35A23.33,23.33,0,0,1,160.66,91.82Z" transform="translate(-18.23 -23.75)"/><path d="M193.31,91.92a21.93,21.93,0,0,1-6.8-1.07,15.38,15.38,0,0,1-5.69-3.23,13.51,13.51,0,0,1-4.44-10.22,20.41,20.41,0,0,1,.19-2.6l2.13-15a19.74,19.74,0,0,1,7.81-13.23,21.93,21.93,0,0,1,6.62-3.33,24.39,24.39,0,0,1,7.21-1.11,21.35,21.35,0,0,1,6.89,1.11,14.79,14.79,0,0,1,5.6,3.33,13.51,13.51,0,0,1,3.42,5.46,11.79,11.79,0,0,1,.83,4.53,17.41,17.41,0,0,1-.27,3,14.84,14.84,0,0,1-3.75,8.19A18.9,18.9,0,0,1,206,72.49,23.31,23.31,0,0,1,197.75,74h-.28a22.64,22.64,0,0,1-7.95-1.48l-.37,2.31a4.76,4.76,0,0,0,.28,2.55,4.36,4.36,0,0,0,1.43,1.8,6.53,6.53,0,0,0,2.31,1.11,10.49,10.49,0,0,0,2.82.37,14.2,14.2,0,0,0,5.18-1,10.33,10.33,0,0,0,4.17-2.87A5.52,5.52,0,0,1,210,77a5.38,5.38,0,0,1,2.64,5,24.08,24.08,0,0,1-9.52,7.68A24.51,24.51,0,0,1,193.31,91.92Zm3.89-27.38a9.73,9.73,0,0,0,4.85-1.34,4.84,4.84,0,0,0,2.64-3.75,4.36,4.36,0,0,0,.09-.83,3.66,3.66,0,0,0-.37-1.67,4,4,0,0,0-1.34-1.75,6.27,6.27,0,0,0-2-1,8.42,8.42,0,0,0-2.31-.32A8.25,8.25,0,0,0,194,55.52a6,6,0,0,0-2.68,4.21l-.56,3.79A20.31,20.31,0,0,0,197.2,64.54Z" transform="translate(-18.23 -23.75)"/><path d="M247.14,24.76a27.66,27.66,0,0,1,3.8.28,8.25,8.25,0,0,1-1.85,12.67c-.3,0-.7-.1-1.16-.14s-.72,0-1.06,0a8.73,8.73,0,0,0-1.85.18,8,8,0,0,0-3,1.21,6.23,6.23,0,0,0-1.9,2,7.13,7.13,0,0,0-.88,2.41L239,45.58h6.12A11.3,11.3,0,0,1,247,50a11.49,11.49,0,0,1-1.06,7.14h-8.51L232.62,90.9A19.06,19.06,0,0,1,229,99.5a27,27,0,0,1-8.46,7,5.12,5.12,0,0,1-5.09-8.14A7.89,7.89,0,0,0,219,94.23a22.76,22.76,0,0,0,.83-3.33l6.66-47.54a23.69,23.69,0,0,1,2.73-8.61,19,19,0,0,1,5.27-6.06,20.45,20.45,0,0,1,7.35-3.37A24.26,24.26,0,0,1,247.14,24.76Z" transform="translate(-18.23 -23.75)"/><path d="M273,42.15a21.35,21.35,0,0,1,6.89,1.11,16,16,0,0,1,5.65,3.24,13.6,13.6,0,0,1,3.56,5.27,14,14,0,0,1,.83,4.91,18.7,18.7,0,0,1-.19,2.59L287.47,74.9a18.73,18.73,0,0,1-2.72,7.54,19.09,19.09,0,0,1-5.09,5.27,22.87,22.87,0,0,1-6.57,3.14,24.87,24.87,0,0,1-7.17,1.07A22.22,22.22,0,0,1,259,90.85a16.44,16.44,0,0,1-5.73-3.14,12.6,12.6,0,0,1-3.66-5.23,14.38,14.38,0,0,1-.74-4.72,21.8,21.8,0,0,1,.19-2.86l2.22-15.63A17.23,17.23,0,0,1,254,51.82a20.17,20.17,0,0,1,5.13-5.32,23.17,23.17,0,0,1,6.62-3.24A24.39,24.39,0,0,1,273,42.15ZM271.19,54a9.17,9.17,0,0,0-4.48,1.21,4.73,4.73,0,0,0-2.55,3.51L262,75a2.4,2.4,0,0,0-.1.65,4.31,4.31,0,0,0,.28,1.48,5.25,5.25,0,0,0,1.29,1.62,6.12,6.12,0,0,0,1.95,1.06,6.89,6.89,0,0,0,2.22.37,7.27,7.27,0,0,0,2.26-.37A8.63,8.63,0,0,0,272,78.74a6.79,6.79,0,0,0,1.71-1.67,5.08,5.08,0,0,0,.88-2.08l2.22-16.28a2.08,2.08,0,0,0,.09-.65,2.32,2.32,0,0,0-.37-1.29,4.1,4.1,0,0,0-1.3-1.53,6.16,6.16,0,0,0-1.89-.92A7.34,7.34,0,0,0,271.19,54Z" transform="translate(-18.23 -23.75)"/><path d="M318,42.15a29.68,29.68,0,0,1,7.67,1,17.15,17.15,0,0,1,6.25,3.06,11.8,11.8,0,0,1,3.84,5.41,14.23,14.23,0,0,1,.83,5,24.88,24.88,0,0,1-.19,3.06L332,91a11.26,11.26,0,0,1-7,2,11.13,11.13,0,0,1-5.8-2l4.26-30.61a9,9,0,0,0,.09-1.21,4.3,4.3,0,0,0-1.67-3.6A7.24,7.24,0,0,0,317.17,54a12.25,12.25,0,0,0-5.55,1.3l-5,35.7a11.28,11.28,0,0,1-12.86,0l6.29-44.67a48.51,48.51,0,0,1,8.88-3.06A38.85,38.85,0,0,1,318,42.15Z" transform="translate(-18.23 -23.75)"/><path d="M355.35,91.68a14.57,14.57,0,0,1-5.87-1.11,10.33,10.33,0,0,1-4.21-3.33A13.29,13.29,0,0,1,343,81.78a20.24,20.24,0,0,1-.28-3.42,25.56,25.56,0,0,1,.37-4.26l6-42.73a8.43,8.43,0,0,1,6.63-2.52,8.08,8.08,0,0,1,5,2.52q-.33,5.77-.65,11.56h5.26a10.22,10.22,0,0,1,2.36,3.92,10.75,10.75,0,0,1-.5,7.64H358.5L355.82,74a14.81,14.81,0,0,0-.1,1.66A5.23,5.23,0,0,0,357.57,80a6.86,6.86,0,0,0,4.26,1.2,17.59,17.59,0,0,0,3-.27,7.72,7.72,0,0,1-1.39,9.34A23.36,23.36,0,0,1,355.35,91.68Z" transform="translate(-18.23 -23.75)"/>
</symbol>
</defs>
</svg>